simulation
nRows=74
nColumns=15
endheader
time  TH_x TH_y TH_z SC_y  SC_z  SC_x  AC_y  AC_z  AC_x  GH_y  GH_z  GH_yy  EL_x  PS_y
0.000000  0.000000  0.000000  0.000000  -30.813392  -0.339563  -1.601442  53.302576  7.223330  -5.215991  42.446688  10.453411  -14.445645  22.668474  122.008067
0.000206  0.000000  0.000000  0.000000  -30.813392  -0.339563  -13.601442  51.746019  16.760433  2.239619  42.446688  10.453411  -14.445645  22.668474  122.008067
0.000412  0.000000  0.000000  0.000000  -17.969055  1.441675  -13.601442  45.786900  1.885141  7.350347  43.453200  17.017663  -15.369555  15.807246  113.487241
0.000618  0.000000  0.000000  0.000000  -37.848527  10.025232  -13.601442  48.380192  6.165783  11.573511  32.092661  13.895566  -12.814185  31.351218  112.684550
0.000824  0.000000  0.000000  0.000000  -20.187066  -0.766285  -13.601442  48.221130  15.821863  2.260451  35.652386  10.340936  -10.143126  16.646684  120.837334
0.001031  0.000000  0.000000  0.000000  -23.581702  4.381930  -13.601442  52.462942  19.077538  17.096478  35.473593  1.254976  -23.112325  28.657559  114.346100
0.001237  0.000000  0.000000  0.000000  -38.933321  5.047249  -13.601442  48.261338  17.268441  16.088562  53.724129  6.236991  -16.362487  19.963013  123.468211
0.001443  0.000000  0.000000  0.000000  -39.751513  -1.803733  -13.601442  48.158797  13.958825  9.746347  35.780741  3.317381  -11.989696  32.070472  119.724175
0.001649  0.000000  0.000000  0.000000  -41.493095  6.382398  -13.601442  43.673301  3.576634  6.818441  43.291014  6.908553  -13.977203  28.408578  121.416779
0.001855  0.000000  0.000000  0.000000  -21.698302  13.907836  -13.601442  48.198968  26.640037  13.778677  40.684609  17.866103  -12.825327  24.222192  118.754278
0.002061  0.000000  0.000000  0.000000  -31.166089  -1.787501  -13.601442  59.925752  24.938764  11.508830  37.433839  2.300986  -5.248508  32.340352  126.613330
0.002267  0.000000  0.000000  0.000000  -30.813392  -0.339563  -8.268109  52.601873  12.546498  -1.140368  42.446688  10.453411  -14.445645  22.668474  122.008067
0.002473  0.000000  0.000000  0.000000  -40.333538  12.295265  -8.268109  49.472186  6.905454  11.780910  47.980977  14.271788  -20.690119  32.544892  125.209408
0.002679  0.000000  0.000000  0.000000  -19.713146  -10.877509  -8.268109  64.586608  21.214998  -2.063212  53.709628  1.913985  -8.992529  16.904283  129.494875
0.002885  0.000000  0.000000  0.000000  -28.690558  2.025159  -8.268109  49.908545  5.650803  8.499096  37.916945  4.334207  -15.146427  25.967431  128.057519
0.003092  0.000000  0.000000  0.000000  -18.503154  1.546314  -8.268109  38.888509  -2.412763  1.780622  35.652131  13.965878  -8.053301  26.572417  113.070775
0.003298  0.000000  0.000000  0.000000  -32.828596  -0.714279  -8.268109  40.322873  -0.595948  -6.200784  27.546688  15.864773  -4.710838  32.214865  123.303403
0.003504  0.000000  0.000000  0.000000  -40.121502  -7.095213  -8.268109  56.837146  16.842819  6.849935  30.200219  6.857130  -19.000201  14.643531  112.908221
0.003710  0.000000  0.000000  0.000000  -30.813392  -0.339563  -2.934775  53.193889  8.291662  -4.410835  42.446688  10.453411  -14.445645  22.668474  122.008067
0.003916  0.000000  0.000000  0.000000  -38.101809  3.542714  -2.934775  59.534751  18.148221  4.727860  50.940039  6.086854  -24.316447  25.914025  128.958074
0.004122  0.000000  0.000000  0.000000  -26.546354  13.422773  -2.934775  53.116459  10.508354  7.392566  37.452010  5.934335  -19.163820  28.201153  122.450770
0.004328  0.000000  0.000000  0.000000  -28.579592  -4.102289  -2.934775  52.895766  3.755733  -0.798164  45.019930  16.401757  -8.479951  15.593832  116.894164
0.004534  0.000000  0.000000  0.000000  -31.776752  5.503005  -2.934775  40.935719  -4.680065  4.258556  38.856151  9.928527  -20.042814  31.715755  120.628100
0.004740  0.000000  0.000000  0.000000  -17.804791  8.085128  -2.934775  38.305533  -5.448800  -7.710282  53.386463  2.274737  -8.989993  20.497888  120.340435
0.004946  0.000000  0.000000  0.000000  -35.863935  5.601567  -2.934775  42.875989  3.087368  -9.721822  55.014193  5.998254  -18.007769  29.198264  119.401975
0.005153  0.000000  0.000000  0.000000  -16.273603  10.748975  -2.934775  48.744381  8.573445  7.956494  40.334252  19.569798  -17.290763  26.654471  131.773717
0.005359  0.000000  0.000000  0.000000  -45.447524  10.394685  -2.934775  46.051781  16.637788  -0.142156  55.000192  3.621119  -7.675524  17.864866  113.168075
0.005565  0.000000  0.000000  0.000000  -37.982844  11.591581  -2.934775  49.396951  10.591125  3.973040  29.473012  2.021414  -19.542433  26.990915  127.521155
0.005771  0.000000  0.000000  0.000000  -30.813392  -0.339563  2.398558  53.537120  4.010764  -7.610968  42.446688  10.453411  -14.445645  22.668474  122.008067
0.005977  0.000000  0.000000  0.000000  -17.178010  -1.954100  2.398558  50.336177  10.636878  -8.993494  43.612270  8.454079  -23.922845  26.449948  131.612888
0.006183  0.000000  0.000000  0.000000  -19.409662  14.089713  2.398558  38.714900  12.826501  -3.468847  55.967425  19.580872  -11.779430  23.443346  112.376668
0.006389  0.000000  0.000000  0.000000  -18.721800  1.993531  2.398558  42.189210  -8.253433  -6.339069  49.053855  13.622895  -4.471369  23.035882  125.546278
0.006595  0.000000  0.000000  0.000000  -18.144386  10.765681  2.398558  52.644072  0.730771  4.461183  30.443665  6.181512  -16.538117  13.952646  130.371361
0.006801  0.000000  0.000000  0.000000  -30.214020  -0.028117  2.398558  60.850410  8.525622  1.653360  40.425394  6.392005  -13.825987  32.217078  125.954988
0.007007  0.000000  0.000000  0.000000  -29.960662  -1.257194  2.398558  59.249470  13.497976  4.339437  56.702030  18.853658  -14.840303  13.081896  119.425533
0.007214  0.000000  0.000000  0.000000  -30.813392  -0.339563  7.731891  53.640230  -0.282471  -10.777653  42.446688  10.453411  -14.445645  22.668474  122.008067
0.007420  0.000000  0.000000  0.000000  -39.573510  -4.949537  7.731891  59.570336  7.197080  -4.848816  57.062090  13.519556  -21.684680  22.534592  115.962168
0.007626  0.000000  0.000000  0.000000  -26.738617  5.669479  7.731891  41.485974  -2.912659  -11.805223  45.632045  18.788045  -22.206517  26.212024  122.677116
0.007832  0.000000  0.000000  0.000000  -17.707682  -3.168739  7.731891  45.732187  -4.322017  -12.769795  46.057851  3.125134  -11.279498  20.685273  131.073071
0.008038  0.000000  0.000000  0.000000  -23.675553  -3.663417  7.731891  65.078711  1.706245  2.714627  40.591632  7.346956  -18.736431  20.294927  121.877245
0.008244  0.000000  0.000000  0.000000  -19.913463  14.131441  7.731891  43.558287  -5.581137  -3.665277  40.433046  19.122685  -10.838134  17.329447  130.114446
0.008450  0.000000  0.000000  0.000000  -44.207188  1.393787  7.731891  51.326980  4.058677  -2.092249  39.323369  7.575807  -14.595286  23.370296  125.648505
0.008656  0.000000  0.000000  0.000000  -33.809474  -6.658860  7.731891  59.834152  3.979840  -5.646590  35.791236  14.605031  -19.650117  29.278122  115.814666
0.008862  0.000000  0.000000  0.000000  -30.813392  -0.339563  13.065225  53.505813  -4.574842  -13.946681  42.446688  10.453411  -14.445645  22.668474  122.008067
0.009068  0.000000  0.000000  0.000000  -35.293087  4.704007  13.065225  41.882823  -10.058443  -8.596475  54.518938  3.998778  -14.899420  30.321132  130.644271
0.009275  0.000000  0.000000  0.000000  -19.014945  12.570060  13.065225  38.832336  -12.318210  -6.239064  38.647844  14.162009  -14.843692  21.859890  114.692627
0.009481  0.000000  0.000000  0.000000  -34.368203  2.085583  13.065225  48.982304  -18.745463  -10.484087  27.556250  12.676491  -11.800193  31.852331  122.698375
0.009687  0.000000  0.000000  0.000000  -23.639159  -4.049717  13.065225  58.960824  4.624688  -11.143228  53.635006  12.108693  -10.448155  26.468558  112.894738
0.009893  0.000000  0.000000  0.000000  -26.606234  -0.796411  13.065225  67.766642  1.815756  0.413571  30.437862  8.226030  -14.356670  24.506975  121.954915
0.010099  0.000000  0.000000  0.000000  -15.994526  -2.467973  13.065225  56.071850  -14.667005  -6.987242  38.652213  3.209120  -22.256736  32.255582  112.844244
0.010305  0.000000  0.000000  0.000000  -30.813392  -0.339563  18.398558  53.130487  -8.853114  -17.153921  42.446688  10.453411  -14.445645  22.668474  122.008067
0.010511  0.000000  0.000000  0.000000  -22.517794  -1.687346  18.398558  57.893880  -8.741988  -4.193512  29.221925  8.617205  -21.239684  23.624369  129.371145
0.010717  0.000000  0.000000  0.000000  -39.569340  5.808396  18.398558  49.774137  -9.072594  -14.861185  42.955191  2.446204  -17.280153  25.882265  113.425249
0.010923  0.000000  0.000000  0.000000  -45.792746  0.692588  18.398558  58.683732  2.380667  -12.250349  46.386898  1.019896  -21.228007  21.667319  118.717220
0.011129  0.000000  0.000000  0.000000  -24.434961  8.024459  18.398558  39.197217  -5.936139  -12.712394  39.855222  6.950589  -5.040245  13.615785  119.401723
0.011336  0.000000  0.000000  0.000000  -26.374743  11.351838  18.398558  52.376130  -19.242748  -2.842693  37.438579  2.855445  -9.527739  15.599386  116.587507
0.011542  0.000000  0.000000  0.000000  -23.822040  0.282481  18.398558  42.530435  -13.710557  -12.458327  46.418261  11.960027  -5.161229  23.199311  127.130313
0.011748  0.000000  0.000000  0.000000  -42.009745  4.627056  18.398558  46.778895  -15.643044  -8.818264  30.327371  1.056888  -20.475348  24.736851  131.528473
0.011954  0.000000  0.000000  0.000000  -30.821578  -0.410264  -1.545830  53.255084  7.285336  -5.316401  42.459058  10.295618  -14.365526  22.758091  122.037272
0.012160  0.000000  0.000000  0.000000  -30.821578  -0.410264  -13.545830  51.688817  16.815796  2.149734  42.459058  10.295618  -14.365526  22.758091  122.037272
0.012366  0.000000  0.000000  0.000000  -17.760883  1.808626  -13.545830  56.997520  19.242654  14.123617  38.007860  20.273344  -22.224190  19.241781  119.864867
0.012572  0.000000  0.000000  0.000000  -26.632182  8.516951  -13.545830  50.805773  23.657807  10.123645  46.925311  2.157962  -12.163522  17.349519  115.905619
0.012778  0.000000  0.000000  0.000000  -16.057679  -1.307212  -13.545830  46.530819  19.430051  -1.372316  31.611678  9.394214  -7.687955  24.958379  130.774242
0.012984  0.000000  0.000000  0.000000  -17.390653  5.847036  -13.545830  44.714828  30.972376  16.675688  43.971095  19.987434  -9.485199  29.922688  130.617482
0.013190  0.000000  0.000000  0.000000  -30.821578  -0.410264  -8.212497  52.549207  12.604996  -1.235307  42.459058  10.295618  -14.365526  22.758091  122.037272
0.013397  0.000000  0.000000  0.000000  -45.545105  -5.813566  -8.212497  58.828942  24.625934  4.773347  33.286357  10.960369  -15.356425  16.149436  123.376191
0.013603  0.000000  0.000000  0.000000  -43.900502  2.203048  -8.212497  55.706431  17.398042  12.575137  51.822259  13.301342  -13.335392  23.168808  119.801928
0.013809  0.000000  0.000000  0.000000  -39.315753  13.232008  -8.212497  44.010743  20.800179  6.334478  52.740514  19.602861  -12.998980  23.963347  130.774830
0.014015  0.000000  0.000000  0.000000  -29.967873  7.679106  -8.212497  40.107904  2.080116  5.693049  50.425014  16.894213  -12.743208  25.502281  113.224542
0.014221  0.000000  0.000000  0.000000  -22.149237  -4.466400  -8.212497  65.065722  18.065534  10.776277  28.951854  2.626590  -23.584943  24.469304  115.917127
0.014427  0.000000  0.000000  0.000000  -30.821578  -0.410264  -2.879164  53.145400  8.352999  -4.510223  42.459058  10.295618  -14.365526  22.758091  122.037272
0.014633  0.000000  0.000000  0.000000  -39.861956  12.092625  -2.879164  45.031295  17.912521  1.730436  48.355643  4.867957  -4.943446  21.069200  124.378295
0.014839  0.000000  0.000000  0.000000  -19.645264  -13.208460  -2.879164  60.074562  19.452746  0.068408  47.881316  3.048796  -16.753713  13.665758  122.131395
0.015045  0.000000  0.000000  0.000000  -44.859668  5.951061  -2.879164  54.352880  6.897955  8.932449  57.049829  14.231855  -15.698252  27.601486  121.619774
